<mxfile host="app.diagrams.net" modified="2024-06-02T10:13:50.738Z" agent="Mozilla/5.0 (Windows NT 10.0; Win64; x64) AppleWebKit/537.36 (KHTML, like Gecko) Chrome/125.0.0.0 Safari/537.36" etag="In2Jlf9Xdzm13mDcvVaA" version="24.4.13" type="device">
  <diagram name="Page-1" id="13e1069c-82ec-6db2-03f1-153e76fe0fe0">
    <mxGraphModel dx="1434" dy="738" grid="1" gridSize="10" guides="1" tooltips="1" connect="1" arrows="1" fold="1" page="1" pageScale="1" pageWidth="1100" pageHeight="850" background="none" math="0" shadow="0">
      <root>
        <mxCell id="0" />
        <mxCell id="1" parent="0" />
        <mxCell id="7baba1c4bc27f4b0-8" value="Professeur" style="shape=umlLifeline;perimeter=lifelinePerimeter;whiteSpace=wrap;html=1;container=1;collapsible=0;recursiveResize=0;outlineConnect=0;rounded=1;shadow=0;comic=0;labelBackgroundColor=none;strokeWidth=1;fontFamily=Verdana;fontSize=12;align=center;" parent="1" vertex="1">
          <mxGeometry x="100" y="80" width="100" height="580" as="geometry" />
        </mxCell>
        <mxCell id="RcblfyyS1Y7_5XWrOZpT-5" value="" style="html=1;points=[[0,0,0,0,5],[0,1,0,0,-5],[1,0,0,0,5],[1,1,0,0,-5]];perimeter=orthogonalPerimeter;outlineConnect=0;targetShapes=umlLifeline;portConstraint=eastwest;newEdgeStyle={&quot;curved&quot;:0,&quot;rounded&quot;:0};" vertex="1" parent="7baba1c4bc27f4b0-8">
          <mxGeometry x="45" y="80" width="10" height="490" as="geometry" />
        </mxCell>
        <mxCell id="RcblfyyS1Y7_5XWrOZpT-6" value="Classe" style="shape=umlLifeline;perimeter=lifelinePerimeter;whiteSpace=wrap;html=1;container=1;dropTarget=0;collapsible=0;recursiveResize=0;outlineConnect=0;portConstraint=eastwest;newEdgeStyle={&quot;curved&quot;:0,&quot;rounded&quot;:0};" vertex="1" parent="1">
          <mxGeometry x="380" y="80" width="100" height="570" as="geometry" />
        </mxCell>
        <mxCell id="RcblfyyS1Y7_5XWrOZpT-7" value="" style="html=1;points=[[0,0,0,0,5],[0,1,0,0,-5],[1,0,0,0,5],[1,1,0,0,-5]];perimeter=orthogonalPerimeter;outlineConnect=0;targetShapes=umlLifeline;portConstraint=eastwest;newEdgeStyle={&quot;curved&quot;:0,&quot;rounded&quot;:0};" vertex="1" parent="RcblfyyS1Y7_5XWrOZpT-6">
          <mxGeometry x="45" y="80" width="10" height="160" as="geometry" />
        </mxCell>
        <mxCell id="RcblfyyS1Y7_5XWrOZpT-8" style="edgeStyle=orthogonalEdgeStyle;rounded=0;orthogonalLoop=1;jettySize=auto;html=1;curved=0;exitX=1;exitY=0;exitDx=0;exitDy=5;exitPerimeter=0;entryX=0;entryY=0;entryDx=0;entryDy=5;entryPerimeter=0;" edge="1" parent="1" source="RcblfyyS1Y7_5XWrOZpT-5" target="RcblfyyS1Y7_5XWrOZpT-7">
          <mxGeometry relative="1" as="geometry" />
        </mxCell>
        <mxCell id="RcblfyyS1Y7_5XWrOZpT-9" value="connexion" style="edgeLabel;html=1;align=center;verticalAlign=middle;resizable=0;points=[];" vertex="1" connectable="0" parent="RcblfyyS1Y7_5XWrOZpT-8">
          <mxGeometry x="-0.0286" relative="1" as="geometry">
            <mxPoint x="-56" y="-15" as="offset" />
          </mxGeometry>
        </mxCell>
        <mxCell id="RcblfyyS1Y7_5XWrOZpT-11" value="Bulletin" style="shape=umlLifeline;perimeter=lifelinePerimeter;whiteSpace=wrap;html=1;container=1;dropTarget=0;collapsible=0;recursiveResize=0;outlineConnect=0;portConstraint=eastwest;newEdgeStyle={&quot;curved&quot;:0,&quot;rounded&quot;:0};" vertex="1" parent="1">
          <mxGeometry x="540" y="80" width="100" height="570" as="geometry" />
        </mxCell>
        <mxCell id="RcblfyyS1Y7_5XWrOZpT-12" value="" style="html=1;points=[[0,0,0,0,5],[0,1,0,0,-5],[1,0,0,0,5],[1,1,0,0,-5]];perimeter=orthogonalPerimeter;outlineConnect=0;targetShapes=umlLifeline;portConstraint=eastwest;newEdgeStyle={&quot;curved&quot;:0,&quot;rounded&quot;:0};" vertex="1" parent="RcblfyyS1Y7_5XWrOZpT-11">
          <mxGeometry x="45" y="80" width="10" height="240" as="geometry" />
        </mxCell>
        <mxCell id="RcblfyyS1Y7_5XWrOZpT-13" style="edgeStyle=orthogonalEdgeStyle;rounded=0;orthogonalLoop=1;jettySize=auto;html=1;curved=0;exitX=1;exitY=0;exitDx=0;exitDy=5;exitPerimeter=0;entryX=0;entryY=0;entryDx=0;entryDy=5;entryPerimeter=0;" edge="1" parent="1" source="RcblfyyS1Y7_5XWrOZpT-7" target="RcblfyyS1Y7_5XWrOZpT-12">
          <mxGeometry relative="1" as="geometry" />
        </mxCell>
        <mxCell id="RcblfyyS1Y7_5XWrOZpT-14" value="insererNote" style="edgeLabel;html=1;align=center;verticalAlign=middle;resizable=0;points=[];" vertex="1" connectable="0" parent="RcblfyyS1Y7_5XWrOZpT-13">
          <mxGeometry x="-0.0857" y="-3" relative="1" as="geometry">
            <mxPoint as="offset" />
          </mxGeometry>
        </mxCell>
        <mxCell id="RcblfyyS1Y7_5XWrOZpT-15" value="Conseil" style="shape=umlLifeline;perimeter=lifelinePerimeter;whiteSpace=wrap;html=1;container=1;dropTarget=0;collapsible=0;recursiveResize=0;outlineConnect=0;portConstraint=eastwest;newEdgeStyle={&quot;curved&quot;:0,&quot;rounded&quot;:0};" vertex="1" parent="1">
          <mxGeometry x="700" y="80" width="100" height="570" as="geometry" />
        </mxCell>
        <mxCell id="RcblfyyS1Y7_5XWrOZpT-16" value="" style="html=1;points=[[0,0,0,0,5],[0,1,0,0,-5],[1,0,0,0,5],[1,1,0,0,-5]];perimeter=orthogonalPerimeter;outlineConnect=0;targetShapes=umlLifeline;portConstraint=eastwest;newEdgeStyle={&quot;curved&quot;:0,&quot;rounded&quot;:0};" vertex="1" parent="RcblfyyS1Y7_5XWrOZpT-15">
          <mxGeometry x="45" y="80" width="10" height="480" as="geometry" />
        </mxCell>
        <mxCell id="RcblfyyS1Y7_5XWrOZpT-17" style="edgeStyle=orthogonalEdgeStyle;rounded=0;orthogonalLoop=1;jettySize=auto;html=1;curved=0;exitX=1;exitY=0;exitDx=0;exitDy=5;exitPerimeter=0;entryX=0;entryY=0;entryDx=0;entryDy=5;entryPerimeter=0;" edge="1" parent="1" source="RcblfyyS1Y7_5XWrOZpT-12" target="RcblfyyS1Y7_5XWrOZpT-16">
          <mxGeometry relative="1" as="geometry" />
        </mxCell>
        <mxCell id="RcblfyyS1Y7_5XWrOZpT-18" style="edgeStyle=orthogonalEdgeStyle;rounded=0;orthogonalLoop=1;jettySize=auto;html=1;curved=0;dashed=1;" edge="1" parent="1" source="RcblfyyS1Y7_5XWrOZpT-12" target="RcblfyyS1Y7_5XWrOZpT-7">
          <mxGeometry relative="1" as="geometry">
            <Array as="points">
              <mxPoint x="480" y="280" />
              <mxPoint x="480" y="280" />
            </Array>
          </mxGeometry>
        </mxCell>
        <mxCell id="RcblfyyS1Y7_5XWrOZpT-19" value="return moyenClasse" style="edgeLabel;html=1;align=center;verticalAlign=middle;resizable=0;points=[];" vertex="1" connectable="0" parent="RcblfyyS1Y7_5XWrOZpT-18">
          <mxGeometry x="-0.1867" y="2" relative="1" as="geometry">
            <mxPoint as="offset" />
          </mxGeometry>
        </mxCell>
        <mxCell id="RcblfyyS1Y7_5XWrOZpT-20" value="Eleve" style="shape=umlLifeline;perimeter=lifelinePerimeter;whiteSpace=wrap;html=1;container=1;dropTarget=0;collapsible=0;recursiveResize=0;outlineConnect=0;portConstraint=eastwest;newEdgeStyle={&quot;curved&quot;:0,&quot;rounded&quot;:0};" vertex="1" parent="1">
          <mxGeometry x="240" y="80" width="100" height="570" as="geometry" />
        </mxCell>
        <mxCell id="RcblfyyS1Y7_5XWrOZpT-21" value="" style="html=1;points=[[0,0,0,0,5],[0,1,0,0,-5],[1,0,0,0,5],[1,1,0,0,-5]];perimeter=orthogonalPerimeter;outlineConnect=0;targetShapes=umlLifeline;portConstraint=eastwest;newEdgeStyle={&quot;curved&quot;:0,&quot;rounded&quot;:0};" vertex="1" parent="RcblfyyS1Y7_5XWrOZpT-20">
          <mxGeometry x="45" y="200" width="10" height="360" as="geometry" />
        </mxCell>
        <mxCell id="RcblfyyS1Y7_5XWrOZpT-22" style="edgeStyle=orthogonalEdgeStyle;rounded=0;orthogonalLoop=1;jettySize=auto;html=1;curved=0;exitX=1;exitY=0;exitDx=0;exitDy=5;exitPerimeter=0;entryX=0;entryY=1;entryDx=0;entryDy=-5;entryPerimeter=0;" edge="1" parent="1" source="RcblfyyS1Y7_5XWrOZpT-21" target="RcblfyyS1Y7_5XWrOZpT-7">
          <mxGeometry relative="1" as="geometry">
            <Array as="points">
              <mxPoint x="425" y="285" />
            </Array>
          </mxGeometry>
        </mxCell>
        <mxCell id="RcblfyyS1Y7_5XWrOZpT-23" value="connexion" style="edgeLabel;html=1;align=center;verticalAlign=middle;resizable=0;points=[];" vertex="1" connectable="0" parent="RcblfyyS1Y7_5XWrOZpT-22">
          <mxGeometry x="-0.2125" y="-2" relative="1" as="geometry">
            <mxPoint y="-17" as="offset" />
          </mxGeometry>
        </mxCell>
        <mxCell id="RcblfyyS1Y7_5XWrOZpT-24" style="edgeStyle=orthogonalEdgeStyle;rounded=0;orthogonalLoop=1;jettySize=auto;html=1;curved=0;exitX=0;exitY=1;exitDx=0;exitDy=-5;exitPerimeter=0;entryX=0.5;entryY=0.292;entryDx=0;entryDy=0;entryPerimeter=0;dashed=1;" edge="1" parent="1" source="RcblfyyS1Y7_5XWrOZpT-7" target="RcblfyyS1Y7_5XWrOZpT-21">
          <mxGeometry relative="1" as="geometry" />
        </mxCell>
        <mxCell id="RcblfyyS1Y7_5XWrOZpT-25" value="matiere" style="edgeLabel;html=1;align=center;verticalAlign=middle;resizable=0;points=[];" vertex="1" connectable="0" parent="RcblfyyS1Y7_5XWrOZpT-24">
          <mxGeometry x="-0.0074" relative="1" as="geometry">
            <mxPoint as="offset" />
          </mxGeometry>
        </mxCell>
        <mxCell id="RcblfyyS1Y7_5XWrOZpT-26" style="edgeStyle=orthogonalEdgeStyle;rounded=0;orthogonalLoop=1;jettySize=auto;html=1;curved=0;" edge="1" parent="1" source="RcblfyyS1Y7_5XWrOZpT-21" target="RcblfyyS1Y7_5XWrOZpT-11">
          <mxGeometry relative="1" as="geometry">
            <Array as="points">
              <mxPoint x="510" y="340" />
              <mxPoint x="510" y="340" />
            </Array>
          </mxGeometry>
        </mxCell>
        <mxCell id="RcblfyyS1Y7_5XWrOZpT-27" value="regargerNote" style="edgeLabel;html=1;align=center;verticalAlign=middle;resizable=0;points=[];" vertex="1" connectable="0" parent="RcblfyyS1Y7_5XWrOZpT-26">
          <mxGeometry x="0.2767" y="2" relative="1" as="geometry">
            <mxPoint x="-3" y="-8" as="offset" />
          </mxGeometry>
        </mxCell>
        <mxCell id="RcblfyyS1Y7_5XWrOZpT-28" style="edgeStyle=orthogonalEdgeStyle;rounded=0;orthogonalLoop=1;jettySize=auto;html=1;curved=0;exitX=0;exitY=1;exitDx=0;exitDy=-5;exitPerimeter=0;entryX=1;entryY=1;entryDx=0;entryDy=-5;entryPerimeter=0;dashed=1;" edge="1" parent="1" source="RcblfyyS1Y7_5XWrOZpT-16" target="RcblfyyS1Y7_5XWrOZpT-21">
          <mxGeometry relative="1" as="geometry" />
        </mxCell>
        <mxCell id="RcblfyyS1Y7_5XWrOZpT-29" value="avisConseil" style="edgeLabel;html=1;align=center;verticalAlign=middle;resizable=0;points=[];" vertex="1" connectable="0" parent="RcblfyyS1Y7_5XWrOZpT-28">
          <mxGeometry x="-0.1022" y="-1" relative="1" as="geometry">
            <mxPoint x="-33" y="-14" as="offset" />
          </mxGeometry>
        </mxCell>
        <mxCell id="RcblfyyS1Y7_5XWrOZpT-30" style="edgeStyle=orthogonalEdgeStyle;rounded=0;orthogonalLoop=1;jettySize=auto;html=1;curved=0;exitX=1;exitY=1;exitDx=0;exitDy=-5;exitPerimeter=0;" edge="1" parent="1" source="RcblfyyS1Y7_5XWrOZpT-12" target="RcblfyyS1Y7_5XWrOZpT-15">
          <mxGeometry relative="1" as="geometry">
            <Array as="points">
              <mxPoint x="595" y="320" />
            </Array>
          </mxGeometry>
        </mxCell>
        <mxCell id="RcblfyyS1Y7_5XWrOZpT-31" value="noteEleve" style="edgeLabel;html=1;align=center;verticalAlign=middle;resizable=0;points=[];" vertex="1" connectable="0" parent="RcblfyyS1Y7_5XWrOZpT-30">
          <mxGeometry x="0.2636" y="-2" relative="1" as="geometry">
            <mxPoint x="5" y="-12" as="offset" />
          </mxGeometry>
        </mxCell>
        <mxCell id="RcblfyyS1Y7_5XWrOZpT-32" style="edgeStyle=orthogonalEdgeStyle;rounded=0;orthogonalLoop=1;jettySize=auto;html=1;curved=0;dashed=1;" edge="1" parent="1" source="RcblfyyS1Y7_5XWrOZpT-7" target="RcblfyyS1Y7_5XWrOZpT-5">
          <mxGeometry relative="1" as="geometry">
            <Array as="points">
              <mxPoint x="230" y="240" />
              <mxPoint x="230" y="240" />
            </Array>
          </mxGeometry>
        </mxCell>
        <mxCell id="RcblfyyS1Y7_5XWrOZpT-33" value="classeAttribue" style="edgeLabel;html=1;align=center;verticalAlign=middle;resizable=0;points=[];" vertex="1" connectable="0" parent="RcblfyyS1Y7_5XWrOZpT-32">
          <mxGeometry x="0.4" y="-3" relative="1" as="geometry">
            <mxPoint x="4" y="-7" as="offset" />
          </mxGeometry>
        </mxCell>
        <mxCell id="RcblfyyS1Y7_5XWrOZpT-34" style="edgeStyle=orthogonalEdgeStyle;rounded=0;orthogonalLoop=1;jettySize=auto;html=1;curved=0;" edge="1" parent="1" source="RcblfyyS1Y7_5XWrOZpT-5" target="RcblfyyS1Y7_5XWrOZpT-20">
          <mxGeometry relative="1" as="geometry">
            <Array as="points">
              <mxPoint x="180" y="310" />
              <mxPoint x="180" y="310" />
            </Array>
          </mxGeometry>
        </mxCell>
        <mxCell id="RcblfyyS1Y7_5XWrOZpT-35" value="Professeur Attibuer" style="edgeLabel;html=1;align=center;verticalAlign=middle;resizable=0;points=[];" vertex="1" connectable="0" parent="RcblfyyS1Y7_5XWrOZpT-34">
          <mxGeometry x="-0.0632" y="1" relative="1" as="geometry">
            <mxPoint as="offset" />
          </mxGeometry>
        </mxCell>
      </root>
    </mxGraphModel>
  </diagram>
</mxfile>
